<svg version="1.2" xmlns="http://www.w3.org/2000/svg" viewBox="0 0 70 19.9"><path fill="#17313b" d="M18.2 0h3.2v19.9h-3.2zM32.6 13.6c0 3-2.6 3.3-3.3 3.3-1.9 0-2.3-1.8-2.3-2.9V6.4h-3.2V14c0 1.9.6 3.4 1.6 4.5.9.9 2.3 1.4 3.8 1.4 1.1 0 2.6-.3 3.3-1.1v1.1h3.2V6.4h-3.2v7.2zM42.1 1.6h-3.2v4.8h-2.4v3.2h2.4v10.3h3.2V9.6h2.4V6.4h-2.4zM54.5 15.9c-.7.6-1.6 1-2.6 1-2.2 0-3.8-1.6-3.8-3.9s1.6-3.8 3.8-3.8c1 0 1.9.3 2.6 1l.5.4 2.1-2.1-.5-.5c-1.3-1.1-2.9-1.8-4.7-1.8C47.9 6.1 45 9 45 13c0 3.9 3 6.9 6.9 6.9 1.8 0 3.5-.6 4.8-1.8l.5-.5-2.2-2.2-.5.5zM68.6 7.6c-.9-.9-2-1.4-3.5-1.4-1.1 0-2.3.3-3.1 1.1V0h-3.2v19.9H62v-7.5c0-3 2.2-3.3 2.9-3.3 1.9 0 1.9 1.8 1.9 2.9v7.9H70V12c0-1.8-.4-3.4-1.4-4.4z"/><circle fill="#FF3D2E" cx="51.8" cy="13" r="2.3"/><path fill="#17313b" d="M13.8 14.9c-1.2 1.2-2.9 1.9-4.6 1.9C5.6 16.8 3 14 3 10.2s2.6-6.6 6.1-6.6c1.7 0 3.3.7 4.6 1.9l.5.5 2.1-2.1-.5-.5C14 1.6 11.6.6 9.1.6 3.9.6 0 4.7 0 10.2s3.9 9.6 9.2 9.6c2.6 0 5-1 6.7-2.8l.5-.5-2.1-2.2-.5.6z"/></svg>