<svg xmlns="http://www.w3.org/2000/svg" width="34.074" height="34.074" viewBox="0 0 34.074 34.074">
  <path id="Education" d="M2.84,34.074A2.843,2.843,0,0,1,0,31.234V9.087a.568.568,0,0,1,1.136,0V31.234a1.705,1.705,0,0,0,1.7,1.7h13.63V31.6a12.281,12.281,0,0,0-4.543-.936A36.431,36.431,0,0,0,3,31.781a.582.582,0,0,1-.156.022.568.568,0,0,1-.568-.568V6.247A.568.568,0,0,1,2.683,5.7a36.871,36.871,0,0,1,9.243-1.157,13.147,13.147,0,0,1,5.365,1.2.568.568,0,0,1,.314.508V27.977a63.639,63.639,0,0,1,9.654-4.532V1.4a60.788,60.788,0,0,0-8.217,4.194.568.568,0,1,1-.6-.963A60.332,60.332,0,0,1,27.627.036.569.569,0,0,1,28.4.568V23.852a.568.568,0,0,1-.389.539A65.082,65.082,0,0,0,17.33,29.449a.568.568,0,0,1-.861-.486V6.615a12.3,12.3,0,0,0-4.543-.936A37.368,37.368,0,0,0,3.408,6.687V30.5a38.286,38.286,0,0,1,8.518-.973,13.3,13.3,0,0,1,5.133,1.088,17.841,17.841,0,0,1,5.657-1.088,32.069,32.069,0,0,1,7.951.949V6.709c-.188-.038-.431-.085-.721-.138a.568.568,0,0,1,.206-1.117c.761.14,1.206.239,1.206.239a.568.568,0,0,1,.445.555V31.234a.569.569,0,0,1-.747.539,29.28,29.28,0,0,0-8.339-1.107,16.741,16.741,0,0,0-5.111.965v1.307h13.63a1.706,1.706,0,0,0,1.7-1.7V9.087a.568.568,0,0,1,1.136,0V31.234a2.843,2.843,0,0,1-2.84,2.84ZM5.7,25.135a.568.568,0,0,1,.4-.7,18.022,18.022,0,0,1,7.66-.27.568.568,0,1,1-.259,1.105,17.117,17.117,0,0,0-7.106.262.561.561,0,0,1-.148.02A.569.569,0,0,1,5.7,25.135ZM19.37,22.974a.568.568,0,0,1,.249-.764,48.679,48.679,0,0,1,5.2-2.307.568.568,0,0,1,.342,1.083,48.828,48.828,0,0,0-5.024,2.236.568.568,0,0,1-.765-.248ZM5.7,21.728a.568.568,0,0,1,.4-.7,18.01,18.01,0,0,1,7.66-.27.568.568,0,1,1-.259,1.105,17.1,17.1,0,0,0-7.106.262.591.591,0,0,1-.148.019A.569.569,0,0,1,5.7,21.728ZM19.37,19.567a.568.568,0,0,1,.249-.764,48.492,48.492,0,0,1,5.2-2.308.568.568,0,0,1,.342,1.084,48.667,48.667,0,0,0-5.024,2.236.57.57,0,0,1-.765-.248ZM5.7,18.32a.569.569,0,0,1,.4-.7,18.035,18.035,0,0,1,7.66-.27A.568.568,0,0,1,13.5,18.46a17.117,17.117,0,0,0-7.106.262.593.593,0,0,1-.148.02A.569.569,0,0,1,5.7,18.32ZM19.37,16.159a.568.568,0,0,1,.249-.764,48.679,48.679,0,0,1,5.2-2.307.568.568,0,0,1,.342,1.083,48.667,48.667,0,0,0-5.024,2.236.568.568,0,0,1-.765-.248ZM5.7,14.913a.568.568,0,0,1,.4-.7,18.035,18.035,0,0,1,7.66-.27.568.568,0,1,1-.259,1.105,17.117,17.117,0,0,0-7.106.262.591.591,0,0,1-.148.019A.568.568,0,0,1,5.7,14.913ZM19.37,12.752a.568.568,0,0,1,.249-.764,48.679,48.679,0,0,1,5.2-2.307.568.568,0,0,1,.342,1.083A48.667,48.667,0,0,0,20.134,13a.568.568,0,0,1-.765-.248ZM5.7,11.505a.568.568,0,0,1,.4-.7,18.022,18.022,0,0,1,7.66-.27.568.568,0,1,1-.259,1.105,17.117,17.117,0,0,0-7.106.262.56.56,0,0,1-.148.019A.568.568,0,0,1,5.7,11.505ZM19.37,9.345a.568.568,0,0,1,.249-.764,48.492,48.492,0,0,1,5.2-2.308.568.568,0,0,1,.342,1.084,48.668,48.668,0,0,0-5.024,2.236.576.576,0,0,1-.257.061A.57.57,0,0,1,19.37,9.345Z" transform="translate(0 0)" fill="#0054a5"/>
</svg>
