<svg xmlns="http://www.w3.org/2000/svg" width="39.264" height="32.436" viewBox="0 0 39.264 32.436">
  <path id="Healthcare" d="M19.894,32.436h0v-.042c-.853-.2-3.716-1.975-7.03-4.592a50.058,50.058,0,0,1-9.08-9.014A8.944,8.944,0,0,1,3,17.65H.694a.674.674,0,1,1,0-1.347H2.176A11.966,11.966,0,0,1,.96,7.2,10.26,10.26,0,0,1,10.73,0a12.667,12.667,0,0,1,4.212.758,21.074,21.074,0,0,1,4.864,2.359A22.094,22.094,0,0,1,24.669.758,12.5,12.5,0,0,1,28.881,0a10.263,10.263,0,0,1,9.771,7.2,11.5,11.5,0,0,1-.825,8.34h.656a.724.724,0,0,1,.781.631.677.677,0,0,1-.694.674H37.218A15.537,15.537,0,0,1,36,18.745,46.273,46.273,0,0,1,26.77,27.9a50.127,50.127,0,0,1-6.66,4.449v.041h-.13a.142.142,0,0,1-.085.042ZM4.651,17.65h0l.261.379c4.52,6.312,12.576,11.494,14.937,12.932l.019-.012c6.731-4.2,11.874-8.663,14.875-12.92l.032-.048c.246-.358.5-.728.75-1.132H31.617a.7.7,0,0,1-.608-.337l-1.433-2.359-1.694,2.4a.794.794,0,0,1-.595.3.615.615,0,0,1-.1-.008.7.7,0,0,1-.565-.464L24.5,9.689,20.5,22.958a.684.684,0,0,1-.651.505h-.043a.71.71,0,0,1-.651-.422L14.6,11.711l-2.91,5.56a.72.72,0,0,1-.651.379H4.651Zm10.118-8.3a.653.653,0,0,1,.608.422l4.386,10.868L23.8,7.119a.74.74,0,0,1,.694-.505.806.806,0,0,1,.7.505l2.388,7.54,1.477-2.106a.659.659,0,0,1,.608-.295.7.7,0,0,1,.608.336l1.781,2.949h4.255a10.753,10.753,0,0,0,1.042-7.962A8.86,8.86,0,0,0,28.925,1.39a10.787,10.787,0,0,0-3.734.674,19.334,19.334,0,0,0-4.907,2.443.676.676,0,0,1-.868,0,1.052,1.052,0,0,1-.126-.08,21.8,21.8,0,0,0-4.781-2.363,11.9,11.9,0,0,0-3.735-.674A8.859,8.859,0,0,0,2.35,7.582c-.789,2.678-.307,5.6,1.433,8.678h6.9l3.431-6.529A.678.678,0,0,1,14.769,9.351Z" fill="#0054a5"/>
</svg>
