<svg xmlns="http://www.w3.org/2000/svg" width="34.184" height="33.992" viewBox="0 0 34.184 33.992">
  <g id="food" transform="translate(0 -0.499)">
    <path id="Path_17" data-name="Path 17" d="M77.829,19.71l2.008-.127h.011a4.729,4.729,0,0,0,3.525-2.058l1.588-2.329a9.4,9.4,0,0,0,1.507-6.9,2.121,2.121,0,0,0-1.99-1.764,9.4,9.4,0,0,0-6.666,2.323l-2.122,1.856a4.73,4.73,0,0,0-1.62,3.746s0,.007,0,.011l.114,2.009A2.828,2.828,0,0,1,73.4,18.6L56.816,35.631a2.409,2.409,0,0,0-.645,1.788,2.77,2.77,0,0,0,2.807,2.693q.11,0,.22-.009a2.41,2.41,0,0,0,1.7-.858l14.92-18.5a2.828,2.828,0,0,1,2.01-1.036Zm-2.807.391L60.1,38.6a1.4,1.4,0,0,1-.987.483,1.75,1.75,0,0,1-1.922-1.7,1.393,1.393,0,0,1,.358-1.035l16.58-17.033a3.856,3.856,0,0,0,1.074-2.89l-.114-2a3.709,3.709,0,0,1,1.271-2.933l2.122-1.856a8.384,8.384,0,0,1,5.943-2.071,1.1,1.1,0,0,1,1.028.912,8.38,8.38,0,0,1-1.344,6.148l-1.588,2.33a3.71,3.71,0,0,1-2.759,1.613l-2,.127A3.858,3.858,0,0,0,75.022,20.1Zm0,0" transform="translate(-52.418 -5.622)" fill="#0054a5"/>
    <path id="Path_18" data-name="Path 18" d="M303.585,297.16l-11.118-10.126a.512.512,0,1,0-.69.758l11.115,10.124a1.4,1.4,0,0,1,.422,1.014,1.75,1.75,0,0,1-1.816,1.816,1.394,1.394,0,0,1-1.011-.42l-9.907-10.876a.512.512,0,1,0-.758.69l9.909,10.879a2.41,2.41,0,0,0,1.747.752h.054a2.774,2.774,0,0,0,2.807-2.861,2.411,2.411,0,0,0-.754-1.749Zm0,0" transform="translate(-270.347 -267.28)" fill="#0054a5"/>
    <path id="Path_19" data-name="Path 19" d="M6.183,13.991a4.745,4.745,0,0,0,3.1,1.254H9.3l2.012.006a2.826,2.826,0,0,1,2.068.912l.886.973a.512.512,0,1,0,.758-.69l-.888-.974a3.856,3.856,0,0,0-2.821-1.246l-2.007-.006a3.723,3.723,0,0,1-2.4-.962L1.069,6.326a.177.177,0,0,1,.261-.239L6.638,11.4a1.347,1.347,0,0,0,1.9,0l.624-.624h0l1.108-1.108h0L10.9,9.04a1.347,1.347,0,0,0,0-1.9L5.588,1.828a.177.177,0,0,1,.239-.261L12.76,7.4a3.721,3.721,0,0,1,.962,2.4l.006,2.007a3.859,3.859,0,0,0,1.247,2.822l.95.865a.512.512,0,1,0,.69-.758l-.948-.864a2.828,2.828,0,0,1-.914-2.069L14.747,9.8s0-.007,0-.011a4.745,4.745,0,0,0-1.254-3.1.512.512,0,0,0-.047-.045L6.487.783A1.2,1.2,0,0,0,4.864,2.553l5.308,5.309a.321.321,0,0,1,0,.454l-.262.261L3.994,2.661a.512.512,0,1,0-.725.725L9.186,9.3,8.8,9.685,2.886,3.769a.512.512,0,0,0-.725.725l5.916,5.916-.261.262a.321.321,0,0,1-.454,0L2.054,5.363A1.2,1.2,0,0,0,.285,6.986l5.854,6.958a.477.477,0,0,0,.045.047Zm0,0" transform="translate(0 0)" fill="#0054a5"/>
  </g>
</svg>
