<svg class="service-icon" xmlns="http://www.w3.org/2000/svg" width="60.31" height="51.124" viewBox="0
                                  0
                                  60.31
                                  51.124">
<g id="Web_development" data-name="Web
                                     development" transform="translate(-714.19
                                     -1434.502)">
<g id="app" transform="translate(714.19
                                        1447.574)">
<path id="Path_40" data-name="Path
                                           40" d="M0,305.55a.851.851,0,0,0,.851.851H42.563a.851.851,0,0,0,.851-.851V294.061a.85.85,0,0,0-1.7,0V304.7H1.7V294.061a.85.85,0,0,0-1.7,0Zm0,0" transform="translate(-0.001
                                           -268.349)" fill="#0054A5" fill-rule="evenodd"></path>
<path id="Path_41" data-name="Path
                                           41" d="M43.413,7.42V.85A.85.85,0,0,0,42.563,0H.85A.85.85,0,0,0,0,.85V18.909a.85.85,0,1,0,1.7,0V8.271H41.713V18.909a.85.85,0,1,0,1.7,0Zm-1.7-.85H1.7V1.7H41.713Zm0,0" transform="translate(0
                                           0)" fill="#0054A5" fill-rule="evenodd"></path>
<path id="Path_42" data-name="Path
                                           42" d="M430.026,40.439h1.75a.85.85,0,1,0,0-1.7h-1.75a.85.85,0,1,0,0,1.7Zm0,0" transform="translate(-392.785
                                           -35.454)" fill="#0054A5" fill-rule="evenodd"></path>
<path id="Path_43" data-name="Path
                                           43" d="M376.534,40.439h1.75a.85.85,0,1,0,0-1.7h-1.75a.85.85,0,1,0,0,1.7Zm0,0" transform="translate(-343.829
                                           -35.454)" fill="#0054A5" fill-rule="evenodd"></path>
<path id="Path_44" data-name="Path
                                           44" d="M323.042,40.439h1.75a.85.85,0,1,0,0-1.7h-1.75a.85.85,0,1,0,0,1.7Zm0,0" transform="translate(-294.873
                                           -35.454)" fill="#0054A5" fill-rule="evenodd"></path>
<path id="Path_45" data-name="Path
                                           45" d="M43.96,276.793a.85.85,0,0,0-.851.85v9.226a.85.85,0,0,0,.851.85h9.226a.85.85,0,0,0,.851-.85v-9.226a.85.85,0,0,0-.851-.85Zm8.375,9.226H44.81v-7.525h7.525Zm0,0" transform="translate(-39.454
                                           -253.323)" fill="#0054A5" fill-rule="evenodd"></path>
<path id="Path_46" data-name="Path
                                           46" d="M66.624,121.44a.85.85,0,0,0-.85-.851H43.96a.851.851,0,0,0-.851.851v9.882a.85.85,0,0,0,.851.85H65.774a.85.85,0,0,0,.85-.85Zm-1.7,9.032H44.81v-8.182H64.923Zm0,0" transform="translate(-39.455
                                           -110.365)" fill="#0054A5" fill-rule="evenodd"></path>
<path id="Path_47" data-name="Path
                                           47" d="M201.642,276.793h-9.226a.85.85,0,0,0-.851.85v9.226a.85.85,0,0,0,.851.85h9.226a.85.85,0,0,0,.85-.85v-9.226A.85.85,0,0,0,201.642,276.793Zm-.851,9.226h-7.525v-7.525h7.525Zm0,0" transform="translate(-175.323
                                           -253.323)" fill="#0054A5" fill-rule="evenodd"></path>
<path id="Path_48" data-name="Path
                                           48" d="M350.1,276.793h-9.226a.85.85,0,0,0-.85.85v9.226a.85.85,0,0,0,.85.85H350.1a.85.85,0,0,0,.851-.85v-9.226A.85.85,0,0,0,350.1,276.793Zm-.85,9.226h-7.525v-7.525h7.525v7.525Zm0,0" transform="translate(-311.195
                                           -253.323)" fill="#0054A5" fill-rule="evenodd"></path>
<path id="Path_49" data-name="Path
                                           49" d="M350.1,120.59h-9.226a.85.85,0,0,0,0,1.7H350.1a.85.85,0,1,0,0-1.7Zm0,0" transform="translate(-311.195
                                           -110.365)" fill="#0054A5" fill-rule="evenodd"></path>
<path id="Path_50" data-name="Path
                                           50" d="M350.1,159.441h-9.226a.85.85,0,0,0,0,1.7H350.1a.85.85,0,1,0,0-1.7Zm0,0" transform="translate(-311.195
                                           -145.922)" fill="#0054A5" fill-rule="evenodd"></path>
<path id="Path_51" data-name="Path
                                           51" d="M350.1,237.137h-9.226a.85.85,0,0,0,0,1.7H350.1a.85.85,0,1,0,0-1.7Zm0,0" transform="translate(-311.195
                                           -217.03)" fill="#0054A5" fill-rule="evenodd"></path>
<path id="Path_52" data-name="Path
                                           52" d="M350.1,198.289h-9.226a.85.85,0,0,0,0,1.7H350.1a.85.85,0,1,0,0-1.7Zm0,0" transform="translate(-311.195
                                           -181.476)" fill="#0054A5" fill-rule="evenodd"></path>
<path id="Path_53" data-name="Path
                                           53" d="M.851,254.794A.85.85,0,1,0,0,253.944.852.852,0,0,0,.851,254.794Zm0,0" transform="translate(-0.001
                                           -231.633)" fill="#0054A5" fill-rule="evenodd"></path>
<path id="Path_54" data-name="Path
                                           54" d="M492.792,253.094a.85.85,0,1,0,.851.85A.852.852,0,0,0,492.792,253.094Zm0,0" transform="translate(-450.229
                                           -231.633)" fill="#0054A5" fill-rule="evenodd"></path>
</g>
<g id="settings" transform="translate(749.502
                                        1434.502)">
<g id="Group_41" data-name="Group
                                           41" transform="translate(8.437
                                           8.437)">
<g id="Group_40" data-name="Group
                                              40">
<path id="Path_2545" data-name="Path
                                                 2545" d="M.505,182.368c.263-.158.533-.317.8-.472a6.985,6.985,0,0,1,0-1.627c-.271-.156-.54-.315-.8-.472a1.054,1.054,0,0,1-.427-1.3h0l.575-1.387a1.054,1.054,0,0,1,1.22-.617c.3.074.6.152.9.233a6.988,6.988,0,0,1,1.15-1.15c-.081-.3-.159-.6-.233-.9a1.054,1.054,0,0,1,.617-1.22L5.7,172.88a1.054,1.054,0,0,1,1.3.427c.158.262.316.532.472.8a6.988,6.988,0,0,1,1.627,0c.156-.271.315-.541.472-.8a1.054,1.054,0,0,1,1.3-.427l1.388.575a1.054,1.054,0,0,1,.617,1.22c-.074.3-.152.6-.233.9a6.983,6.983,0,0,1,1.15,1.15c.3-.081.606-.16.9-.233a1.054,1.054,0,0,1,1.22.617l.575,1.387a1.054,1.054,0,0,1-.427,1.3c-.262.158-.532.316-.8.472a6.991,6.991,0,0,1,0,1.627c.27.156.54.315.8.472a1.054,1.054,0,0,1,.427,1.3l-.575,1.388a1.054,1.054,0,0,1-1.22.617c-.3-.074-.6-.152-.9-.233a6.99,6.99,0,0,1-1.15,1.15c.081.3.16.605.233.9a1.054,1.054,0,0,1-.617,1.22l-1.388.575a1.037,1.037,0,0,1-.4.079,1.054,1.054,0,0,1-.9-.506c-.156-.26-.315-.53-.472-.8a7,7,0,0,1-1.627,0c-.155.269-.314.539-.472.8a1.054,1.054,0,0,1-1.3.427l-1.387-.575a1.054,1.054,0,0,1-.617-1.22c.073-.295.152-.6.233-.9a6.99,6.99,0,0,1-1.15-1.15c-.3.081-.6.159-.9.233a1.054,1.054,0,0,1-1.22-.617l-.575-1.388A1.054,1.054,0,0,1,.505,182.368Zm1.159,2.2c.285-.071.575-.147.864-.225a1.045,1.045,0,0,1,1.1.367,5.867,5.867,0,0,0,1.024,1.024,1.045,1.045,0,0,1,.366,1.1c-.078.291-.154.581-.225.864l1.275.528c.152-.253.3-.512.452-.77a1.046,1.046,0,0,1,1.036-.518,5.873,5.873,0,0,0,1.448,0,1.045,1.045,0,0,1,1.037.518c.15.261.3.52.452.77l1.275-.528c-.071-.285-.147-.575-.225-.864a1.045,1.045,0,0,1,.367-1.1,5.867,5.867,0,0,0,1.024-1.024,1.045,1.045,0,0,1,1.1-.366c.289.078.58.153.864.225l.528-1.275c-.252-.151-.511-.3-.77-.452a1.045,1.045,0,0,1-.518-1.036,5.874,5.874,0,0,0,0-1.448,1.045,1.045,0,0,1,.518-1.037c.259-.149.518-.3.77-.452l-.528-1.275c-.284.071-.575.147-.864.225a1.046,1.046,0,0,1-1.1-.367,5.865,5.865,0,0,0-1.024-1.024,1.045,1.045,0,0,1-.366-1.1c.078-.288.153-.579.225-.864l-1.275-.528c-.151.251-.3.51-.452.77A1.045,1.045,0,0,1,9,175.225a5.863,5.863,0,0,0-1.448,0,1.045,1.045,0,0,1-1.037-.518c-.149-.259-.3-.518-.452-.77l-1.275.528c.071.285.147.575.225.864a1.045,1.045,0,0,1-.367,1.1,5.869,5.869,0,0,0-1.024,1.024,1.045,1.045,0,0,1-1.1.366c-.289-.078-.579-.153-.864-.225l-.528,1.275c.252.151.51.3.77.452a1.045,1.045,0,0,1,.518,1.036,5.868,5.868,0,0,0,0,1.448,1.046,1.046,0,0,1-.518,1.037c-.259.149-.517.3-.77.452Z" transform="translate(0
                                                 -172.801)" fill="#0054A5"></path>
</g>
</g>
<g id="Group_43" data-name="Group
                                           43" transform="translate(12.904
                                           12.904)">
<g id="Group_42" data-name="Group
                                              42">
<path id="Path_2546" data-name="Path
                                                 2546" d="M91.784,266.647h0a3.818,3.818,0,1,1,2.064,4.983A3.818,3.818,0,0,1,91.784,266.647Zm2.492,3.949a2.695,2.695,0,1,0-1.458-3.521A2.677,2.677,0,0,0,94.276,270.6Z" transform="translate(-91.494
                                                 -264.293)" fill="#0054A5"></path>
</g>
</g>
<g id="Group_45" data-name="Group
                                           45" transform="translate(0)">
<g id="Group_44" data-name="Group
                                              44">
<path id="Path_2547" data-name="Path
                                                 2547" d="M252.6,4.928c.193-.029.392-.057.591-.084a5.208,5.208,0,0,1,.4-.968c-.122-.16-.243-.32-.359-.477a.892.892,0,0,1,.087-1.153l.772-.772a.891.891,0,0,1,1.153-.087c.158.117.318.237.477.359a5.206,5.206,0,0,1,.968-.4c.027-.2.055-.4.084-.591A.892.892,0,0,1,257.652,0h1.092a.892.892,0,0,1,.877.754c.029.193.057.391.084.591a5.206,5.206,0,0,1,.968.4c.159-.122.32-.242.477-.359a.891.891,0,0,1,1.153.087l.772.772a.892.892,0,0,1,.087,1.154c-.116.157-.237.318-.359.477a5.213,5.213,0,0,1,.4.968c.2.027.4.055.591.084a.892.892,0,0,1,.754.877V6.9a.892.892,0,0,1-.754.877c-.193.029-.392.057-.591.084a5.211,5.211,0,0,1-.4.968c.122.16.243.32.359.477a.892.892,0,0,1-.087,1.153l-.772.772a.891.891,0,0,1-1.153.087c-.158-.117-.318-.237-.477-.359a5.208,5.208,0,0,1-.968.4c-.027.2-.055.4-.084.591a.892.892,0,0,1-.877.754h-1.092a.891.891,0,0,1-.877-.754c-.029-.193-.057-.392-.084-.591a5.2,5.2,0,0,1-.968-.4c-.159.122-.32.242-.477.359a.891.891,0,0,1-1.153-.087l-.772-.772a.892.892,0,0,1-.087-1.154c.116-.158.237-.318.359-.477a5.211,5.211,0,0,1-.4-.968c-.2-.027-.4-.055-.591-.084a.892.892,0,0,1-.754-.877V5.805A.892.892,0,0,1,252.6,4.928Zm.309,1.817c.175.025.354.05.534.074a.884.884,0,0,1,.74.642,4.138,4.138,0,0,0,.391.944.884.884,0,0,1-.069.978c-.11.143-.219.287-.326.43l.557.557c.143-.107.287-.216.43-.326a.884.884,0,0,1,.978-.069,4.14,4.14,0,0,0,.944.391.884.884,0,0,1,.642.74c.023.18.048.359.074.534h.788c.025-.175.05-.354.074-.534a.884.884,0,0,1,.642-.741,4.138,4.138,0,0,0,.944-.391.884.884,0,0,1,.978.069c.143.11.287.219.43.326l.557-.557c-.106-.143-.215-.287-.326-.43a.885.885,0,0,1-.069-.978,4.141,4.141,0,0,0,.391-.944.884.884,0,0,1,.74-.642c.18-.023.359-.048.534-.074V5.957c-.175-.025-.354-.05-.534-.074a.884.884,0,0,1-.74-.642,4.136,4.136,0,0,0-.391-.944.884.884,0,0,1,.069-.978c.11-.143.219-.287.326-.43l-.557-.557c-.143.107-.287.216-.43.326a.884.884,0,0,1-.978.069,4.142,4.142,0,0,0-.944-.391.884.884,0,0,1-.642-.74c-.023-.18-.048-.358-.074-.534H257.8c-.025.175-.05.354-.073.534a.884.884,0,0,1-.642.741,4.139,4.139,0,0,0-.944.391.884.884,0,0,1-.978-.069c-.143-.11-.287-.219-.43-.326l-.557.557c.106.142.215.286.326.43a.884.884,0,0,1,.069.978,4.143,4.143,0,0,0-.391.944.884.884,0,0,1-.74.642c-.18.023-.359.048-.534.074Z" transform="translate(-251.847)" fill="#0054A5"></path>
</g>
</g>
<g id="Group_47" data-name="Group 47" transform="translate(4.085 4.085)">
<g id="Group_46" data-name="Group 46">
<path id="Path_2548" data-name="Path 2548" d="M337.789,83.675a2.266,2.266,0,1,1-2.266,2.266A2.268,2.268,0,0,1,337.789,83.675Zm0,3.524a1.258,1.258,0,1,0-1.258-1.259A1.26,1.26,0,0,0,337.789,87.2Z" transform="translate(-335.523 -83.675)" fill="#0054A5"></path>
</g>
</g>
</g>
</g>
</svg>