<svg class="service-icon" xmlns="http://www.w3.org/2000/svg" width="45.575" height="45.575" viewBox="0
                                  0
                                  45.575
                                  45.575">
<g id="Ai" transform="translate(6
                                     -1.467)">
<path id="Path_2549" data-name="Path
                                        2549" d="M154.347,422.252a1.049,1.049,0,0,1-.454-.986c.024-1.038.019-2.076,0-3.114a.826.826,0,0,1,.622-.9q5.522-1.9,11.039-3.816c.778-.269,1.16.013,1.161.842,0,1.451,0,2.9,0,4.4h3.538v1.408c-.119.008-.246.024-.373.025q-1.824,0-3.648,0c-.705,0-.939-.23-.94-.924,0-1.364,0-2.727,0-4.136-.226.069-.421.122-.61.188-2.98,1.031-5.958,2.069-8.941,3.089-.314.107-.449.241-.427.589.034.531.009,1.065.009,1.684l7.641-2.049.379,1.364-3.06.837.006.046h15.682c0-.687.009-1.377-.011-2.067,0-.092-.138-.216-.24-.262-.8-.36-1.594-.716-2.4-1.044a1.076,1.076,0,0,0-.6-.018c-.5.111-1,.259-1.538.4l-.375-1.366,1.613-.451v-2.265h1.42c0,.664.017,1.314-.008,1.961a.5.5,0,0,0,.36.557q5.135,2.228,10.255,4.487a5.126,5.126,0,0,1,.786.534v.979Zm26.564-1.44.011-.07-3.491-1.524v1.594Z" transform="translate(-145.66
                                        -375.21)" fill="#0054A5"></path>
<path id="Path_2550" data-name="Path
                                        2550" d="M191.611,1.467l2.588.359c.072.01.143.027.29.056l-.246,1.389a21.548,21.548,0,0,0-10.334.51l-.446-1.407c1-.219,1.959-.447,2.924-.633.637-.123,1.287-.185,1.93-.274Z" transform="translate(-172.598)" fill="#0054A5"></path>
<path id="Path_2551" data-name="Path
                                        2551" d="M-6,65.467h1.394v1.424H-6Z" transform="translate(0
                                        -58.303)" fill="#0054A5"></path>
<path id="Path_2552" data-name="Path
                                        2552" d="M491.734,330.891H490.34v-1.424h1.394Z" transform="translate(-452.159
                                        -298.804)" fill="#0054A5"></path>
<path id="Path_2553" data-name="Path
                                        2553" d="M491.729,362.891h-1.395v-1.424h1.395Z" transform="translate(-452.154
                                        -327.955)" fill="#0054A5"></path>
<path id="Path_2554" data-name="Path
                                        2554" d="M491.728,394.891l-1.281-.005a.645.645,0,0,1-.114-.028v-1.392h1.395Z" transform="translate(-452.153
                                        -357.107)" fill="#0054A5"></path>
<path id="Path_2555" data-name="Path
                                        2555" d="M221.042,23.665c0,.386.007.772,0,1.157a.7.7,0,0,1-.727.778,1.509,1.509,0,0,0-1.466,1.188,26.649,26.649,0,0,1-1.06,2.534,1.436,1.436,0,0,0,.206,1.9.717.717,0,0,1-.045,1.1q-.8.806-1.615,1.594a.745.745,0,0,1-1.141.032,1.554,1.554,0,0,0-1.851-.184c-.881.415-1.791.773-2.7,1.115a1.412,1.412,0,0,0-1.087,1.344c-.028.648-.29.864-.929.867-.727,0-1.454.006-2.181,0a.707.707,0,0,1-.8-.782,1.329,1.329,0,0,0-.989-1.318q-1.493-.561-2.966-1.175a1.476,1.476,0,0,0-1.656.221c-.532.447-.783.429-1.3-.062q-.739-.708-1.483-1.41a.784.784,0,0,1-.074-1.212,1.357,1.357,0,0,0,.189-1.783c-.409-.852-.784-1.723-1.127-2.6a1.436,1.436,0,0,0-1.421-1.118c-.623-.049-.836-.275-.838-.9,0-.742,0-1.483,0-2.225,0-.512.241-.745.76-.761a1.36,1.36,0,0,0,1.388-1.022c.365-.936.751-1.865,1.175-2.775a1.38,1.38,0,0,0-.21-1.786.71.71,0,0,1,.008-1.129q.8-.807,1.617-1.592a.721.721,0,0,1,1.107-.038,1.563,1.563,0,0,0,1.924.165c.838-.4,1.705-.751,2.579-1.069a1.4,1.4,0,0,0,1.15-1.432.748.748,0,0,1,.863-.794c.682-.008,1.365-.007,2.047-.011s.934.227.991.91a1.338,1.338,0,0,0,.968,1.2c1.007.385,2.013.774,3.007,1.19a1.453,1.453,0,0,0,1.616-.217c.549-.455.827-.437,1.337.052s1.042.97,1.557,1.462a.713.713,0,0,1,.049,1.155,1.373,1.373,0,0,0-.193,1.753c.414.882.812,1.776,1.156,2.687a1.477,1.477,0,0,0,1.322,1.073c.676.072.839.265.842.939C221.043,23.012,221.042,23.339,221.042,23.665ZM208.183,35.654a3.315,3.315,0,0,1,2.211-2.194,17.824,17.824,0,0,0,2.249-.935,3.065,3.065,0,0,1,2.538-.158.674.674,0,0,0,.93-.231.7.7,0,0,1,.158-.155c.243-.174.262-.361.143-.645a3.084,3.084,0,0,1,.146-2.738,17.281,17.281,0,0,0,.921-2.207,3.1,3.1,0,0,1,1.755-1.951c.318-.134.437-.3.386-.623a1.19,1.19,0,0,1,0-.355c.042-.277-.067-.411-.333-.519a3.124,3.124,0,0,1-1.8-1.912,22.876,22.876,0,0,0-.98-2.278,3.015,3.015,0,0,1-.175-2.533c.141-.365.129-.6-.2-.812a1,1,0,0,1-.228-.211.536.536,0,0,0-.73-.145,3.168,3.168,0,0,1-2.706-.111,13.592,13.592,0,0,0-2.136-.862,3.287,3.287,0,0,1-2.211-1.9.63.63,0,0,0-.382-.253,3.819,3.819,0,0,0-.486-.015c-.319-.046-.452.1-.574.387a3.069,3.069,0,0,1-1.971,1.792,10.931,10.931,0,0,0-1.974.789,3.534,3.534,0,0,1-3.488.112,3.4,3.4,0,0,1-.436.563.529.529,0,0,0-.15.716,3.078,3.078,0,0,1-.143,2.659c-.372.737-.65,1.52-.987,2.276a3.411,3.411,0,0,1-.563,1.043,15.668,15.668,0,0,1-1.535,1.21V24.5a3.351,3.351,0,0,1,2.276,2.336,10.566,10.566,0,0,0,.831,1.908,3.1,3.1,0,0,1,.169,2.818.382.382,0,0,0,.123.529,1.982,1.982,0,0,1,.319.309.506.506,0,0,0,.691.141,3.175,3.175,0,0,1,2.706.106,20.489,20.489,0,0,0,2.306.912,3.194,3.194,0,0,1,1.979,1.729c.057.119.111.24.168.362Z" transform="translate(-182.179
                                        -8.212)" fill="#0054A5"></path>
<path id="Path_2556" data-name="Path
                                        2556" d="M3.154,86.314l1.172.8c-.209.345-.412.666-.6,1a12.845,12.845,0,0,0-1.93,6.75c.01.443.064.889.033,1.329A6.11,6.11,0,0,1,.659,98.9a15.588,15.588,0,0,1-3.091,3.655c-.2.175-.4.356-.594.538-.463.431-.493.67.043,1.016a7.806,7.806,0,0,0,1.749.838c1.608.538,2.093,1.643,1.315,3.133-.054.1-.1.209-.2.407.569.065,1.086.154,1.606.177.711.031,1.424.008,2.136.012.488,0,.784.227.835.622.048.37-.177.65-.61.808-.889.324-1.775.657-2.66.994a3.657,3.657,0,0,0-.416.226c.11.139.2.247.287.362a2.888,2.888,0,0,1,.5,2.6,8.216,8.216,0,0,0-.3,1.43,2.305,2.305,0,0,0,2.217,2.835,4.781,4.781,0,0,0,2.361-.232q9.274-3.152,18.551-6.3c.152-.052.306-.1.5-.16l.455,1.314c-.148.06-.276.12-.409.165q-9.358,3.18-18.719,6.353a5.531,5.531,0,0,1-4.168-.109,3.815,3.815,0,0,1-2.167-4.267,15.418,15.418,0,0,1,.359-1.556,1.151,1.151,0,0,0-.347-1.287c-.989-.856-.953-1.569.109-2.349.043-.032.08-.073.149-.137-.3-.09-.572-.147-.825-.251a1.232,1.232,0,0,1-.782-1.776,9.709,9.709,0,0,1,.392-.894c.169-.345.089-.532-.286-.669a13.187,13.187,0,0,1-2.043-.851c-1.555-.889-1.686-2.4-.414-3.686.935-.947,1.841-1.925,2.724-2.921a8.547,8.547,0,0,0,.8-1.228,4.487,4.487,0,0,0,.694-2.681A14.757,14.757,0,0,1,3.154,86.314Z" transform="translate(-1.207
                                        -77.294)" fill="#0054A5"></path>
<path id="Path_2557" data-name="Path
                                        2557" d="M26.24,67.079V65.705H42.562v1.374Z" transform="translate(-29.37
                                        -58.52)" fill="#0054A5"></path>
<path id="Path_2558" data-name="Path
                                        2558" d="M357.356,344.2H353.2l-6.269,0c-.7,0-.937-.232-.938-.925,0-1.807,0-3.613,0-5.453h1.419v4.938h9.94Z" transform="translate(-320.664
                                        -306.413)" fill="#0054A5"></path>
<path id="Path_2559" data-name="Path
                                        2559" d="M378,313.693h1.412v4.23h7.1v1.426c-.146.007-.29.019-.433.02q-3.556,0-7.112,0c-.753,0-.97-.22-.97-.982C378,316.835,378,315.282,378,313.693Z" transform="translate(-349.817
                                        -284.434)" fill="#0054A5"></path>
<path id="Path_2560" data-name="Path
                                        2560" d="M57.989,35.093c0-.4,0-.769,0-1.137,0-.071.011-.142.018-.235h11.34v1.372Z" transform="translate(-58.293
                                        -29.383)" fill="#0054A5"></path>
<path id="Path_2561" data-name="Path
                                        2561" d="M449.446,211.226l-1.155-.836a14.155,14.155,0,0,0,2.665-8.8c.131-.016.215-.035.3-.036.353,0,.706,0,1.119,0A15.854,15.854,0,0,1,449.446,211.226Z" transform="translate(-413.853
                                        -182.28)" fill="#0054A5"></path>
<path id="Path_2562" data-name="Path
                                        2562" d="M409.993,289.467h1.417v3.543h4.245v1.416c-.115.008-.242.026-.37.026q-2.2,0-4.4,0c-.642,0-.891-.246-.893-.879C409.991,292.225,409.993,290.879,409.993,289.467Z" transform="translate(-378.964
                                        -262.364)" fill="#0054A5"></path>
<path id="Path_2563" data-name="Path
                                        2563" d="M93.8,201.711h1.37a2.487,2.487,0,0,1-1.029,2.3,2.218,2.218,0,0,1-2.569.225,2.532,2.532,0,0,1-1.336-2.52h1.346c.149,1.12.373,1.4,1.108,1.4S93.648,202.836,93.8,201.711Z" transform="translate(-87.654
                                        -182.42)" fill="#0054A5"></path>
<path id="Path_2564" data-name="Path
                                        2564" d="M26.357,33.679h1.368v1.369H26.357Z" transform="translate(-29.477
                                        -29.345)" fill="#0054A5"></path>
<path id="Path_2566" data-name="Path
                                        2566" d="M279.264,84.6a7.228,7.228,0,1,1-7.181-7.133A7.306,7.306,0,0,1,279.264,84.6Zm-1.425-.011a5.8,5.8,0,1,0-5.793,5.7A5.631,5.631,0,0,0,277.839,84.59Z" transform="translate(-246.704
                                        -69.235)" fill="#0054A5"></path>
<path id="Path_2567" data-name="Path
                                        2567" d="M300.845,125.712H299.43V127.1h-1.448c0-.73,0-1.452,0-2.174,0-.89,0-1.78,0-2.67a.722.722,0,0,1,.818-.821c.89-.006,1.78-.009,2.67,0a.7.7,0,0,1,.779.725c.008,1.617,0,3.234-.005,4.851,0,.026-.022.051-.043.1h-1.358Zm-1.407-2.839v1.369h1.369v-1.369Z" transform="translate(-276.922
                                        -109.28)" fill="#0054A5"></path>
<path id="Path_2568" data-name="Path
                                        2568" d="M365.039,121.822v1.38h-.66v2.837l.659.047v1.37h-2.8v-1.377l.655-.031v-2.815l-.66-.035v-1.376Z" transform="translate(-335.454
                                        -109.642)" fill="#0054A5"></path>
</g>
</svg>