<svg xmlns="http://www.w3.org/2000/svg" width="46.667" height="46.667" viewBox="0 0 46.667 46.667">
<path data-name="Path 2571" d="M44.408,22.581a2.258,2.258,0,1,0-2.119-3.011H34.765a12.051,12.051,0,0,0-.619-1.505h3.489a.749.749,0,0,0,.532-.221l2.79-2.79h1.332a2.258,2.258,0,1,0,0-1.505H40.645a.749.749,0,0,0-.532.221l-2.79,2.79H33.282A12.092,12.092,0,0,0,27.1,11.9V10.306L32.63,8.231a.753.753,0,0,0,.488-.7V4.378a2.258,2.258,0,1,0-1.505,0V7.005L27.1,8.7V7.388a2.258,2.258,0,1,0-1.505,0V11.51a11.71,11.71,0,0,0-4.516,0V4.378a2.258,2.258,0,1,0-1.505,0V11.9a12.053,12.053,0,0,0-1.505.619V9.032a.749.749,0,0,0-.221-.532l-2.79-2.79V4.378a2.258,2.258,0,1,0-1.505,0V6.021a.749.749,0,0,0,.221.532l2.79,2.79v4.041A12.092,12.092,0,0,0,11.9,19.57H10.306L8.231,14.036a.753.753,0,0,0-.7-.488H4.378a2.258,2.258,0,1,0,0,1.505H7.005L8.7,19.57H7.388a2.258,2.258,0,1,0,0,1.505H11.51a11.71,11.71,0,0,0,0,4.516H4.378a2.258,2.258,0,1,0,0,1.505H11.9a11.894,11.894,0,0,0,.62,1.505H9.032a.749.749,0,0,0-.532.221l-2.79,2.79H4.378a2.258,2.258,0,1,0,0,1.505H6.021a.749.749,0,0,0,.532-.221l2.79-2.79h4.041a12.092,12.092,0,0,0,6.185,4.658V36.36l-5.534,2.075a.753.753,0,0,0-.488.7v3.149a2.258,2.258,0,1,0,1.505,0V39.661l4.516-1.694v1.311a2.258,2.258,0,1,0,1.505,0V35.156a11.71,11.71,0,0,0,4.516,0v7.132a2.258,2.258,0,1,0,1.505,0V34.765a12.053,12.053,0,0,0,1.505-.619v3.489a.749.749,0,0,0,.221.532l2.79,2.79v1.332a2.258,2.258,0,1,0,1.505,0V40.645a.749.749,0,0,0-.221-.532l-2.79-2.79V33.282A12.092,12.092,0,0,0,34.766,27.1H36.36l2.075,5.534a.753.753,0,0,0,.7.488h3.149a2.258,2.258,0,1,0,0-1.505H39.661L37.968,27.1h1.311a2.258,2.258,0,1,0,0-1.505H35.156a11.71,11.71,0,0,0,0-4.516h7.132a2.255,2.255,0,0,0,2.119,1.505Zm0-9.032a.753.753,0,1,1-.753.753A.753.753,0,0,1,44.408,13.548ZM32.365,1.505a.753.753,0,1,1-.753.753A.753.753,0,0,1,32.365,1.505ZM26.344,4.516a.753.753,0,1,1-.753.753A.753.753,0,0,1,26.344,4.516ZM20.322,1.505a.753.753,0,1,1-.753.753A.753.753,0,0,1,20.322,1.505Zm-6.021,0a.753.753,0,1,1-.753.753A.753.753,0,0,1,14.3,1.505ZM2.258,15.054a.753.753,0,1,1,.753-.753A.753.753,0,0,1,2.258,15.054Zm3.011,6.021a.753.753,0,1,1,.753-.753A.753.753,0,0,1,5.269,21.075ZM2.258,27.1a.753.753,0,1,1,.753-.753A.753.753,0,0,1,2.258,27.1Zm0,6.021a.753.753,0,1,1,.753-.753A.753.753,0,0,1,2.258,33.118ZM14.3,45.161a.753.753,0,1,1,.753-.753A.753.753,0,0,1,14.3,45.161Zm6.021-3.011a.753.753,0,1,1,.753-.753A.753.753,0,0,1,20.322,42.15Zm6.021,3.011a.753.753,0,1,1,.753-.753A.753.753,0,0,1,26.344,45.161Zm6.021,0a.753.753,0,1,1,.753-.753A.753.753,0,0,1,32.365,45.161ZM44.408,31.613a.753.753,0,1,1-.753.753A.753.753,0,0,1,44.408,31.613ZM41.4,25.591a.753.753,0,1,1-.753.753A.753.753,0,0,1,41.4,25.591Zm-18.064,8.28A10.538,10.538,0,1,1,33.871,23.333,10.549,10.549,0,0,1,23.333,33.871Zm21.075-14.3a.753.753,0,1,1-.753.753A.753.753,0,0,1,44.408,19.57Zm0,0" transform="translate(0)" fill="#0054A5"></path>
<path data-name="Path 2572" d="M215.527,180.516a3.006,3.006,0,0,0-2.258-2.9V176h-1.505v1.505h-.753V176h-1.505v1.505h-.753a.752.752,0,0,0-.753.753v9.032a.752.752,0,0,0,.753.753h.753v1.505h1.505v-1.505h.753v1.505h1.505v-1.612a2.987,2.987,0,0,0,1.218-5.162A2.991,2.991,0,0,0,215.527,180.516Zm-1.505,4.516a1.507,1.507,0,0,1-1.505,1.505h-3.011v-3.011h3.011A1.507,1.507,0,0,1,214.022,185.032Zm-4.516-3.011v-3.011h3.011a1.505,1.505,0,1,1,0,3.011Zm0,0" transform="translate(-188.43 -159.441)" fill="#0054A5"></path>
<path data-name="Path 2573" d="M161.032,152a9.032,9.032,0,1,0,9.032,9.032A9.042,9.042,0,0,0,161.032,152Zm0,16.559a7.527,7.527,0,1,1,7.527-7.527A7.535,7.535,0,0,1,161.032,168.559Zm0,0" transform="translate(-137.699 -137.699)" fill="#0054A5"></path>
</svg>