<svg xmlns="http://www.w3.org/2000/svg" width="37.911" height="34.12" viewBox="0 0 37.911 34.12">
  <g id="Ecommerce" transform="translate(0 -24)">
    <g id="Group_9" data-name="Group 9" transform="translate(0 24)">
      <g id="Group_8" data-name="Group 8" transform="translate(0 0)">
        <path id="Path_20" data-name="Path 20" d="M36.015,24H1.9A1.9,1.9,0,0,0,0,25.9v24.01a1.9,1.9,0,0,0,1.9,1.9H16.428v2.527H11.373a1.9,1.9,0,0,0-1.9,1.9v1.264a.632.632,0,0,0,.632.632H27.8a.632.632,0,0,0,.632-.632V56.224a1.9,1.9,0,0,0-1.9-1.9H22.115V51.8h13.9a1.9,1.9,0,0,0,1.9-1.9V25.9A1.9,1.9,0,0,0,36.015,24ZM26.538,55.593a.632.632,0,0,1,.632.632v.632H10.741v-.632a.632.632,0,0,1,.632-.632Zm-8.846-1.264V51.8h3.159v2.527Zm18.956-4.423a.632.632,0,0,1-.632.632H1.9a.632.632,0,0,1-.632-.632v-1.9H36.647Zm0-3.159H1.264V29.107H36.647Zm0-18.9H1.264V25.9a.632.632,0,0,1,.632-.632h34.12a.632.632,0,0,1,.632.632Z" transform="translate(0 -24)" fill="#0054a5"/>
        <path id="Path_21" data-name="Path 21" d="M32.632,105.264h1.4L35.8,113.6a.632.632,0,0,0,.62.505h7.582a.632.632,0,0,0,.619-.505l1.264-6.319a.632.632,0,0,0-.619-.758H35.652l-.512-2.048a.632.632,0,0,0-.613-.479h-1.9a.632.632,0,1,0,0,1.264ZM44.5,107.791l-1.01,5.055H36.94l-1.011-5.055Z" transform="translate(-29.473 -97.681)" fill="#0054a5"/>
        <path id="Path_22" data-name="Path 22" d="M81.9,240a1.9,1.9,0,1,0,1.9,1.9A1.9,1.9,0,0,0,81.9,240Zm0,2.527a.632.632,0,1,1,.632-.632A.632.632,0,0,1,81.9,242.527Z" transform="translate(-73.681 -222.94)" fill="#0054a5"/>
        <path id="Path_23" data-name="Path 23" d="M153.9,240a1.9,1.9,0,1,0,1.9,1.9A1.9,1.9,0,0,0,153.9,240Zm0,2.527a.632.632,0,1,1,.632-.632A.632.632,0,0,1,153.9,242.527Z" transform="translate(-139.995 -222.94)" fill="#0054a5"/>
        <path id="Path_24" data-name="Path 24" d="M240.632,129.264h11.373a.632.632,0,1,0,0-1.264H240.632a.632.632,0,1,0,0,1.264Z" transform="translate(-221.044 -119.786)" fill="#0054a5"/>
        <path id="Path_25" data-name="Path 25" d="M416.632,129.264H417.9a.632.632,0,1,0,0-1.264h-1.264a.632.632,0,1,0,0,1.264Z" transform="translate(-383.144 -119.786)" fill="#0054a5"/>
        <path id="Path_26" data-name="Path 26" d="M240.632,161.264h11.373a.632.632,0,1,0,0-1.264H240.632a.632.632,0,1,0,0,1.264Z" transform="translate(-221.044 -149.259)" fill="#0054a5"/>
        <path id="Path_27" data-name="Path 27" d="M416.632,161.264H417.9a.632.632,0,1,0,0-1.264h-1.264a.632.632,0,1,0,0,1.264Z" transform="translate(-383.144 -149.259)" fill="#0054a5"/>
        <path id="Path_28" data-name="Path 28" d="M240.632,193.264h11.373a.632.632,0,1,0,0-1.264H240.632a.632.632,0,1,0,0,1.264Z" transform="translate(-221.044 -178.731)" fill="#0054a5"/>
        <path id="Path_29" data-name="Path 29" d="M416.632,193.264H417.9a.632.632,0,1,0,0-1.264h-1.264a.632.632,0,1,0,0,1.264Z" transform="translate(-383.144 -178.731)" fill="#0054a5"/>
        <path id="Path_30" data-name="Path 30" d="M240.632,225.264h11.373a.632.632,0,1,0,0-1.264H240.632a.632.632,0,1,0,0,1.264Z" transform="translate(-221.044 -208.204)" fill="#0054a5"/>
        <path id="Path_31" data-name="Path 31" d="M416.632,225.264H417.9a.632.632,0,1,0,0-1.264h-1.264a.632.632,0,1,0,0,1.264Z" transform="translate(-383.144 -208.204)" fill="#0054a5"/>
      </g>
    </g>
  </g>
</svg>
