<svg class="service-icon" xmlns="http://www.w3.org/2000/svg" width="45.043" height="56.96" viewBox="0 0 45.043
                              56.96">
<g id="App_Development" data-name="App
                                 Development" transform="translate(-415.457
                                 -1428.502)">
<g id="web-design" transform="translate(326.957
                                    1442.538)">
<g id="Group_11" data-name="Group
                                       11" transform="translate(91.015
                                       9.432)">
<g id="Group_10" data-name="Group
                                          10">
<path id="Path_32" data-name="Path
                                             32" d="M140.927,112.5h-21.8a.629.629,0,0,0-.629.629v3.689a.629.629,0,0,0,.629.629h21.8a.629.629,0,0,0,.629-.629v-3.689A.629.629,0,0,0,140.927,112.5Zm-.629,3.689h-20.54v-2.431H140.3Z" transform="translate(-118.5
                                             -112.5)" fill="#0054A5"></path>
</g>
</g>
<g id="Group_13" data-name="Group
                                       13" transform="translate(91.015
                                       15.549)">
<g id="Group_12" data-name="Group
                                          12">
<path id="Path_33" data-name="Path
                                             33" d="M130.028,185.463h-10.9a.629.629,0,0,0-.629.629v7.283a.629.629,0,0,0,.629.629h10.9a.629.629,0,0,0,.629-.629v-7.283A.629.629,0,0,0,130.028,185.463Zm-.629,7.283h-9.641v-6.026H129.4Z" transform="translate(-118.5
                                             -185.463)" fill="#0054A5"></path>
</g>
</g>
<g id="Group_15" data-name="Group
                                       15" transform="translate(91.015
                                       25.036)">
<g id="Group_14" data-name="Group
                                          14">
<path id="Path_34" data-name="Path
                                             34" d="M130.028,298.625h-10.9a.629.629,0,0,0-.629.629v7.283a.629.629,0,0,0,.629.629h10.9a.629.629,0,0,0,.629-.629v-7.283A.629.629,0,0,0,130.028,298.625Zm-.629,7.283h-9.641v-6.026H129.4Z" transform="translate(-118.5
                                             -298.625)" fill="#0054A5"></path>
</g>
</g>
<g id="Group_17" data-name="Group
                                       17" transform="translate(104.764
                                       15.552)">
<g id="Group_16" data-name="Group
                                          16">
<path id="Path_35" data-name="Path
                                             35" d="M291.177,185.5h-8.048a.629.629,0,0,0-.629.629V202.9a.629.629,0,0,0,.629.629h8.048a.629.629,0,0,0,.629-.629V186.129A.629.629,0,0,0,291.177,185.5Zm-.629,16.767h-6.791v-15.51h6.791Z" transform="translate(-282.5
                                             -185.5)" fill="#0054A5"></path>
</g>
</g>
<g id="Group_19" data-name="Group
                                       19" transform="translate(88.5
                                       10.081)">
<g id="Group_18" data-name="Group
                                          18">
<path id="Path_36" data-name="Path
                                             36" d="M115.957,144.43a.629.629,0,0,0-.629.629v1.719H89.758v-25.9a.629.629,0,1,0-1.258,0v29.909a2.308,2.308,0,0,0,2.306,2.306H114.28a2.308,2.308,0,0,0,2.306-2.306v-5.729A.629.629,0,0,0,115.957,144.43Zm-.629,6.33a1.049,1.049,0,0,1-1.048,1.048H90.806a1.049,1.049,0,0,1-1.048-1.048v-2.725h25.57Z" transform="translate(-88.5
                                             -120.25)" fill="#0054A5"></path>
</g>
</g>
<g id="Group_21" data-name="Group
                                       21" transform="translate(99.986
                                       2.515)">
<g id="Group_20" data-name="Group
                                          20">
<path id="Path_37" data-name="Path
                                             37" d="M229.985,30h-3.857a.629.629,0,1,0,0,1.258h3.857a.629.629,0,1,0,0-1.258Z" transform="translate(-225.5
                                             -30)" fill="#0054A5"></path>
</g>
</g>
<g id="Group_23" data-name="Group
                                       23" transform="translate(97.768
                                       2.515)">
<g id="Group_22" data-name="Group
                                          22">
<circle id="Ellipse_1" data-name="Ellipse
                                             1" cx="0.629" cy="0.629" r="0.629" fill="#0054A5"></circle>
</g>
 </g>
<g id="Group_25" data-name="Group
                                       25" transform="translate(95.039
                                       39.152)">
<g id="Group_24" data-name="Group
                                          24">
<path id="Path_38" data-name="Path
                                             38" d="M180.878,467H167.129a.629.629,0,0,0,0,1.258h13.749a.629.629,0,0,0,0-1.258Z" transform="translate(-166.5
                                             -467)" fill="#0054A5"></path>
</g>
</g>
<g id="Group_27" data-name="Group
                                       27" transform="translate(88.5)">
<g id="Group_26" data-name="Group
                                          26">
<path id="Path_39" data-name="Path
                                             39" d="M114.28,0H90.806A2.308,2.308,0,0,0,88.5,2.306V8.027a.629.629,0,1,0,1.258,0V6.288h20.876a.629.629,0,1,0,0-1.258H89.758V2.306a1.049,1.049,0,0,1,1.048-1.048H114.28a1.049,1.049,0,0,1,1.048,1.048V5.03h-2.033a.629.629,0,1,0,0,1.258h2.033V32.166a.629.629,0,1,0,1.258,0V2.306A2.308,2.308,0,0,0,114.28,0Z" transform="translate(-88.5)" fill="#0054A5"></path>
</g>
</g>
</g>
<g id="settings" transform="translate(435.502
                                    1428.502)">
<g id="Group_41" data-name="Group
                                       41" transform="translate(8.437
                                       8.437)">
<g id="Group_40" data-name="Group
                                          40">
<path id="Path_2545" data-name="Path
                                             2545" d="M.505,182.368c.263-.158.533-.317.8-.472a6.985,6.985,0,0,1,0-1.627c-.271-.156-.54-.315-.8-.472a1.054,1.054,0,0,1-.427-1.3h0l.575-1.387a1.054,1.054,0,0,1,1.22-.617c.3.074.6.152.9.233a6.988,6.988,0,0,1,1.15-1.15c-.081-.3-.159-.6-.233-.9a1.054,1.054,0,0,1,.617-1.22L5.7,172.88a1.054,1.054,0,0,1,1.3.427c.158.262.316.532.472.8a6.988,6.988,0,0,1,1.627,0c.156-.271.315-.541.472-.8a1.054,1.054,0,0,1,1.3-.427l1.388.575a1.054,1.054,0,0,1,.617,1.22c-.074.3-.152.6-.233.9a6.983,6.983,0,0,1,1.15,1.15c.3-.081.606-.16.9-.233a1.054,1.054,0,0,1,1.22.617l.575,1.387a1.054,1.054,0,0,1-.427,1.3c-.262.158-.532.316-.8.472a6.991,6.991,0,0,1,0,1.627c.27.156.54.315.8.472a1.054,1.054,0,0,1,.427,1.3l-.575,1.388a1.054,1.054,0,0,1-1.22.617c-.3-.074-.6-.152-.9-.233a6.99,6.99,0,0,1-1.15,1.15c.081.3.16.605.233.9a1.054,1.054,0,0,1-.617,1.22l-1.388.575a1.037,1.037,0,0,1-.4.079,1.054,1.054,0,0,1-.9-.506c-.156-.26-.315-.53-.472-.8a7,7,0,0,1-1.627,0c-.155.269-.314.539-.472.8a1.054,1.054,0,0,1-1.3.427l-1.387-.575a1.054,1.054,0,0,1-.617-1.22c.073-.295.152-.6.233-.9a6.99,6.99,0,0,1-1.15-1.15c-.3.081-.6.159-.9.233a1.054,1.054,0,0,1-1.22-.617l-.575-1.388A1.054,1.054,0,0,1,.505,182.368Zm1.159,2.2c.285-.071.575-.147.864-.225a1.045,1.045,0,0,1,1.1.367,5.867,5.867,0,0,0,1.024,1.024,1.045,1.045,0,0,1,.366,1.1c-.078.291-.154.581-.225.864l1.275.528c.152-.253.3-.512.452-.77a1.046,1.046,0,0,1,1.036-.518,5.873,5.873,0,0,0,1.448,0,1.045,1.045,0,0,1,1.037.518c.15.261.3.52.452.77l1.275-.528c-.071-.285-.147-.575-.225-.864a1.045,1.045,0,0,1,.367-1.1,5.867,5.867,0,0,0,1.024-1.024,1.045,1.045,0,0,1,1.1-.366c.289.078.58.153.864.225l.528-1.275c-.252-.151-.511-.3-.77-.452a1.045,1.045,0,0,1-.518-1.036,5.874,5.874,0,0,0,0-1.448,1.045,1.045,0,0,1,.518-1.037c.259-.149.518-.3.77-.452l-.528-1.275c-.284.071-.575.147-.864.225a1.046,1.046,0,0,1-1.1-.367,5.865,5.865,0,0,0-1.024-1.024,1.045,1.045,0,0,1-.366-1.1c.078-.288.153-.579.225-.864l-1.275-.528c-.151.251-.3.51-.452.77A1.045,1.045,0,0,1,9,175.225a5.863,5.863,0,0,0-1.448,0,1.045,1.045,0,0,1-1.037-.518c-.149-.259-.3-.518-.452-.77l-1.275.528c.071.285.147.575.225.864a1.045,1.045,0,0,1-.367,1.1,5.869,5.869,0,0,0-1.024,1.024,1.045,1.045,0,0,1-1.1.366c-.289-.078-.579-.153-.864-.225l-.528,1.275c.252.151.51.3.77.452a1.045,1.045,0,0,1,.518,1.036,5.868,5.868,0,0,0,0,1.448,1.046,1.046,0,0,1-.518,1.037c-.259.149-.517.3-.77.452Z" transform="translate(0
                                             -172.801)" fill="#0054A5"></path>
</g>
</g>
<g id="Group_43" data-name="Group
                                       43" transform="translate(12.904
                                       12.904)">
<g id="Group_42" data-name="Group
                                          42">
<path id="Path_2546" data-name="Path
                                             2546" d="M91.784,266.647h0a3.818,3.818,0,1,1,2.064,4.983A3.818,3.818,0,0,1,91.784,266.647Zm2.492,3.949a2.695,2.695,0,1,0-1.458-3.521A2.677,2.677,0,0,0,94.276,270.6Z" transform="translate(-91.494
                                             -264.293)" fill="#0054A5"></path>
</g>
</g>
<g id="Group_45" data-name="Group
                                       45" transform="translate(0)">
<g id="Group_44" data-name="Group
                                          44">
<path id="Path_2547" data-name="Path
                                             2547" d="M252.6,4.928c.193-.029.392-.057.591-.084a5.208,5.208,0,0,1,.4-.968c-.122-.16-.243-.32-.359-.477a.892.892,0,0,1,.087-1.153l.772-.772a.891.891,0,0,1,1.153-.087c.158.117.318.237.477.359a5.206,5.206,0,0,1,.968-.4c.027-.2.055-.4.084-.591A.892.892,0,0,1,257.652,0h1.092a.892.892,0,0,1,.877.754c.029.193.057.391.084.591a5.206,5.206,0,0,1,.968.4c.159-.122.32-.242.477-.359a.891.891,0,0,1,1.153.087l.772.772a.892.892,0,0,1,.087,1.154c-.116.157-.237.318-.359.477a5.213,5.213,0,0,1,.4.968c.2.027.4.055.591.084a.892.892,0,0,1,.754.877V6.9a.892.892,0,0,1-.754.877c-.193.029-.392.057-.591.084a5.211,5.211,0,0,1-.4.968c.122.16.243.32.359.477a.892.892,0,0,1-.087,1.153l-.772.772a.891.891,0,0,1-1.153.087c-.158-.117-.318-.237-.477-.359a5.208,5.208,0,0,1-.968.4c-.027.2-.055.4-.084.591a.892.892,0,0,1-.877.754h-1.092a.891.891,0,0,1-.877-.754c-.029-.193-.057-.392-.084-.591a5.2,5.2,0,0,1-.968-.4c-.159.122-.32.242-.477.359a.891.891,0,0,1-1.153-.087l-.772-.772a.892.892,0,0,1-.087-1.154c.116-.158.237-.318.359-.477a5.211,5.211,0,0,1-.4-.968c-.2-.027-.4-.055-.591-.084a.892.892,0,0,1-.754-.877V5.805A.892.892,0,0,1,252.6,4.928Zm.309,1.817c.175.025.354.05.534.074a.884.884,0,0,1,.74.642,4.138,4.138,0,0,0,.391.944.884.884,0,0,1-.069.978c-.11.143-.219.287-.326.43l.557.557c.143-.107.287-.216.43-.326a.884.884,0,0,1,.978-.069,4.14,4.14,0,0,0,.944.391.884.884,0,0,1,.642.74c.023.18.048.359.074.534h.788c.025-.175.05-.354.074-.534a.884.884,0,0,1,.642-.741,4.138,4.138,0,0,0,.944-.391.884.884,0,0,1,.978.069c.143.11.287.219.43.326l.557-.557c-.106-.143-.215-.287-.326-.43a.885.885,0,0,1-.069-.978,4.141,4.141,0,0,0,.391-.944.884.884,0,0,1,.74-.642c.18-.023.359-.048.534-.074V5.957c-.175-.025-.354-.05-.534-.074a.884.884,0,0,1-.74-.642,4.136,4.136,0,0,0-.391-.944.884.884,0,0,1,.069-.978c.11-.143.219-.287.326-.43l-.557-.557c-.143.107-.287.216-.43.326a.884.884,0,0,1-.978.069,4.142,4.142,0,0,0-.944-.391.884.884,0,0,1-.642-.74c-.023-.18-.048-.358-.074-.534H257.8c-.025.175-.05.354-.073.534a.884.884,0,0,1-.642.741,4.139,4.139,0,0,0-.944.391.884.884,0,0,1-.978-.069c-.143-.11-.287-.219-.43-.326l-.557.557c.106.142.215.286.326.43a.884.884,0,0,1,.069.978,4.143,4.143,0,0,0-.391.944.884.884,0,0,1-.74.642c-.18.023-.359.048-.534.074Z" transform="translate(-251.847)" fill="#0054A5"></path>
</g>
</g>
<g id="Group_47" data-name="Group
                                       47" transform="translate(4.085
                                       4.085)">
<g id="Group_46" data-name="Group
                                          46">
<path id="Path_2548" data-name="Path
                                             2548" d="M337.789,83.675a2.266,2.266,0,1,1-2.266,2.266A2.268,2.268,0,0,1,337.789,83.675Zm0,3.524a1.258,1.258,0,1,0-1.258-1.259A1.26,1.26,0,0,0,337.789,87.2Z" transform="translate(-335.523
                                             -83.675)" fill="#0054A5"></path>
</g>
</g>
</g>
</g>
</svg>