<svg version="1.1" id="Layer_1" xmlns="http://www.w3.org/2000/svg" xmlns:xlink="http://www.w3.org/1999/xlink" x="0px" y="0px" viewBox="0 0 1000 1000" style="enable-background: new 0 0 1000 1000;" xml:space="preserve">
<g>
<path class="st0" d="M451,432.2L273.7,625.7c-12.5-6-22.8-12.8-31-20.3c-11.4-10.4-20.7-22.7-27.8-36.8l59.4-64.9
                    c-29.4-18.6-55.1-15.9-77,8c-14.6,15.9-19.7,35.1-15.3,57.5c4.4,22.4,17.1,43.3,38.3,62.7c22.1,20.2,44.4,31.8,66.9,34.6
                    c22.5,2.8,41-3.6,55.4-19.3c11.7-12.7,16.6-30.9,14.7-54.4l154,7.4c-4.4,58.3-25.6,108.2-63.6,149.6
                    c-46.3,50.5-102.1,77.4-167.5,80.7c-65.4,3.3-123.1-18-173.2-63.9c-49.8-45.7-76-101.6-78.6-167.8c-2.6-66.2,19.3-124.5,65.6-175.1
                    c45.2-49.4,100-75.5,164.4-78.3c64.3-2.8,121.1,18.3,170.2,63.3C433.4,413.5,440.9,421.2,451,432.2z" ></path>
</g>
<g>
<path class="st0" d="M666.3,199v368.9c0,61.4,22.1,92.1,66.2,92.1c18.8,0,34.8-6.4,47.9-19.2c13.1-12.8,19.7-28.3,19.7-46.5
                    c0-18.8-6.2-34.6-18.5-47.5c-12.4-12.8-27.5-19.2-45.4-19.2c-12.7,0-57.9,0.7-69.9,59.7V380.8c91-52.2,193.6-6.6,240.1,40.3
                    c46.5,46.9,69.7,103.4,69.7,169.5c0,67.6-23.6,124.5-70.8,170.8c-47.2,46.3-105.3,69.4-174.1,69.4c-34.6,0-68.3-7.6-101.2-22.7
                    c-32.9-15.1-60-35.5-81.3-61.1c-37-44.4-55.6-102-55.6-172.7V386.6L666.3,199z" ></path>
</g>
<polygon class="st1" points="464.8,204.8 585.7,204.8 585.7,238 464.8,359.4 " style="fill: transparent;"></polygon>
<polygon class="st0" points="464.9,147.8 666.3,148 493.1,335.2 511.1,221.4 " ></polygon>
<polygon class="st2" points="387.9,478.6 371.3,461 684.3,121.9 700.9,139.5 " style="fill: transparent;"></polygon>
</svg>